. 
  
http://www.torrenting.com/        :     Greatest Movie Tracker on The Net!!!
 
http://www.Torrenting.com          :     Once & For all ;)


               www . Torrenting . Com 

(((((((((((((= Enjoy No RAR releases =))))))))))))))))))))


...................................NFO:....................................

.                                                                                                     
       
     
     
       
       
     
     
                                         
                                         
                EXVID                    
                                         
         
                                         
         Filled the Archives             
                                         
         
                                         
                With:                    
                                         
         
                                         
                                    
     E240                           
                                    
     SP               (C) 2009      
                                         
     
     
     
                                                                                  
                                                                                   
           The.Cranes.are.Flying.1957.PROPER.DVDRip.XviD-EXViD                      
                                                                                   
                                                                                  
     
                                                                                               
EXViD aims to iNTERNAL those releases which have been lost in the archives.
EXViD aims to PRE non-internal releases which have poor sources and are likely skipped by others.
 
http://www.imdb.com/title/tt0050634/
Subtitles: English
Date: 2011.09

Director: Mikhail Kalatozov

Genre: Drama | Romance | War

Plot:
In Moscow, the young couple Veronika (T. Samojlova) and Boris (Aleksey Batalov) are in deep
love for each other. With the World War II, Boris volunteers to join the army and is sent to
the front on the day before Veronika's birthday, and they do not have the chance to say
goodbye to each other. While waiting for news from Boris, Veronika is raped by Boris' cousin
Mark (A. Shvorin) and they marry each other. However, Veronika does not forget Boris, and
keeps waiting for him.

Cast:
Tatyana Samojlova 	 ... 	 Veronika (as T. Samojlova)
Aleksey Batalov 	 ... 	 Boris
Vasili Merkuryev 	 ... 	 Fyodor Ivanovich (as V. Merkuryev)
Aleksandr Shvorin 	 ... 	 Mark (as A. Shvorin)
Svetlana Kharitonova 	 ... 	 Irina (as S. Kharitonova)
Konstantin Nikitin 	 ... 	 Volodya (as K. Nikitin)
Valentin Zubkov 	 ... 	 Stepan (as V. Zubkov)
Antonina Bogdanova 	 ... 	 Grandmother (as A. Bogdanova)
Boris Kokovkin 	 ... 	 Tyernov (as B. Kokovkin)
Yekaterina Kupriyanova 	 ... 	 Anna Mikhajlovna (as Ye. Kupriyanova)

Stats:
Format                           : AVI
Format/Info                      : Audio Video Interleave
File size                        : 700 MiB
Duration                         : 1h 35mn
Overall bit rate                 : 1 021 Kbps
Writing application              : Nandub v1.0rc2
Writing library                  : Nandub build 1852/release

Video
ID                               : 0
Format                           : MPEG-4 Visual
Format profile                   : Advanced Simple@L5
Format settings, BVOP            : 2
Format settings, QPel            : No
Format settings, GMC             : No warppoints
Format settings, Matrix          : Default (H.263)
Codec ID                         : XVID
Codec ID/Hint                    : XviD
Duration                         : 1h 35mn
Bit rate                         : 935 Kbps
Width                            : 512 pixels
Height                           : 384 pixels
Display aspect ratio             : 4:3
Frame rate                       : 23.976 fps
Color space                      : YUV
Chroma subsampling               : 4:2:0
Bit depth                        : 8 bits
Scan type                        : Progressive
Compression mode                 : Lossy
Bits/(Pixel*Frame)               : 0.198
Stream size                      : 641 MiB (92%)
Writing library                  : XviD 64

Audio
ID                               : 1
Format                           : MPEG Audio
Format version                   : Version 1
Format profile                   : Layer 3
Codec ID                         : 55
Codec ID/Hint                    : MP3
Duration                         : 1h 35mn
Bit rate mode                    : Variable
Bit rate                         : 73.3 Kbps
Nominal bit rate                 : 80.0 Kbps
Channel(s)                       : 1 channel
Sampling rate                    : 48.0 KHz
Compression mode                 : Lossy
Stream size                      : 50.2 MiB (7%)
Alignment                        : Aligned on interleaves
Interleave, duration             : 24 ms (0.58 video frame)
Interleave, preload duration     : 500 ms
Writing library                  : LAME3.98r
Encoding settings                : -m m -V 4 -q 3 -lowpass 20.3 --abr 80




Release notes:
The 2003 CLiO rip had a frameskip each second, resulting in a 4 mins shorter runtime.
The 2005 DeLiTE rip was a dupe.

enjoy!

Looking for:
75TB+ Archives
DUTCH/FLEMiSH Archives
                                                                                                    
Greets: CRBS EPiSODE FiCO FLS iLS KLASSiGER LiPSYNC MADE NODLABS RUNNER SPRiNTER      
   

                                                                    ASCII DONE BY XX^NFO 2oo9